<svg 
 xmlns="http://www.w3.org/2000/svg"
 xmlns:xlink="http://www.w3.org/1999/xlink"
 width="983.98px" height="325.98px">
<path fill-rule="evenodd"  fill="rgb(48, 48, 48)"
 d="M31.000,-0.000 L453.1000,-0.000 C471.121,-0.000 484.1000,13.879 484.1000,30.1000 L484.1000,294.000 C484.1000,311.121 471.121,325.000 453.1000,325.000 L31.000,325.000 C13.879,325.000 0.000,311.121 0.000,294.000 L0.000,30.1000 C0.000,13.879 13.879,-0.000 31.000,-0.000 Z"/>
<path fill-rule="evenodd"  fill="rgb(48, 48, 48)"
 d="M528.997,-0.000 L951.997,-0.000 C969.118,-0.000 982.997,13.879 982.997,30.1000 L982.997,294.000 C982.997,311.121 969.118,325.000 951.997,325.000 L528.997,325.000 C511.876,325.000 497.997,311.121 497.997,294.000 L497.997,30.1000 C497.997,13.879 511.876,-0.000 528.997,-0.000 Z"/>
<path fill-rule="evenodd"  opacity="0.2" fill="rgb(228, 49, 49)"
 d="M34.1000,25.1000 L447.000,25.1000 C460.255,25.1000 470.1000,36.745 470.1000,49.1000 L470.1000,132.000 C470.1000,145.255 460.255,156.000 447.000,156.000 L34.1000,156.000 C21.745,156.000 11.000,145.255 11.000,132.000 L11.000,49.1000 C11.000,36.745 21.745,25.1000 34.1000,25.1000 Z"/>
<path fill-rule="evenodd"  fill="rgb(239, 239, 239)"
 d="M34.1000,176.011 L447.000,176.011 C460.255,176.011 470.1000,186.756 470.1000,200.011 L470.1000,282.011 C470.1000,295.265 460.255,306.011 447.000,306.011 L34.1000,306.011 C21.745,306.011 11.000,295.265 11.000,282.011 L11.000,200.011 C11.000,186.756 21.745,176.011 34.1000,176.011 Z"/>
<path fill-rule="evenodd"  opacity="0.322" fill="rgb(48, 48, 48)"
 d="M324.000,176.008 L447.000,176.008 C460.255,176.008 470.1000,186.754 470.1000,200.008 L470.1000,279.008 L347.1000,279.008 C334.745,279.008 324.000,268.263 324.000,255.008 L324.000,176.008 Z"/>
<path fill-rule="evenodd"  opacity="0.322" fill="rgb(48, 48, 48)"
 d="M347.1000,111.004 L470.1000,111.004 L470.1000,156.004 L324.000,156.004 L324.000,135.004 C324.000,121.749 334.745,111.004 347.1000,111.004 Z"/>
<path fill-rule="evenodd"  fill="rgb(239, 239, 239)"
 d="M568.500,19.288 L912.500,19.288 C944.533,19.288 970.500,45.256 970.500,77.288 L970.500,91.288 C970.500,123.321 944.533,149.288 912.500,149.288 L568.500,149.288 C536.467,149.288 510.500,123.321 510.500,91.288 L510.500,77.288 C510.500,45.256 536.467,19.288 568.500,19.288 Z"/>
<path fill-rule="evenodd"  fill="rgb(239, 239, 239)"
 d="M534.500,19.288 L946.500,19.288 C959.755,19.288 970.500,30.033 970.500,43.288 L970.500,125.288 C970.500,138.543 959.755,149.288 946.500,149.288 L534.500,149.288 C521.245,149.288 510.500,138.543 510.500,125.288 L510.500,43.288 C510.500,30.033 521.245,19.288 534.500,19.288 Z"/>
<path fill-rule="evenodd"  stroke="rgb(228, 49, 49)" stroke-width="0.88px" stroke-linecap="butt" stroke-linejoin="miter" opacity="0.278" fill="rgb(239, 239, 239)"
 d="M534.1000,176.007 L947.000,176.007 C960.255,176.007 970.1000,186.752 970.1000,200.007 L970.1000,282.007 C970.1000,295.262 960.255,306.007 947.000,306.007 L534.1000,306.007 C521.745,306.007 511.000,295.262 511.000,282.007 L511.000,200.007 C511.000,186.752 521.745,176.007 534.1000,176.007 Z"/>
<path fill-rule="evenodd"  opacity="0.322" fill="rgb(48, 48, 48)"
 d="M511.1000,176.008 L789.000,176.008 L789.000,255.008 C789.000,268.263 778.255,279.008 765.000,279.008 L511.1000,279.008 L511.1000,176.008 Z"/>
<path fill-rule="evenodd"  stroke="rgb(228, 49, 49)" stroke-width="1.96px" stroke-linecap="butt" stroke-linejoin="miter" fill="rgb(239, 239, 239)"
 d="M371.1000,91.417 L784.000,91.417 C797.255,91.417 807.1000,102.162 807.1000,115.417 L807.1000,197.417 C807.1000,210.672 797.255,221.417 784.000,221.417 L371.1000,221.417 C358.745,221.417 348.000,210.672 348.000,197.417 L348.000,115.417 C348.000,102.162 358.745,91.417 371.1000,91.417 Z"/>
</svg>