<svg 
 xmlns="http://www.w3.org/2000/svg"
 xmlns:xlink="http://www.w3.org/1999/xlink"
 width="983px" height="395px">
<path fill-rule="evenodd"  fill="rgb(48, 48, 48)"
 d="M528.997,34.1000 L951.997,34.1000 C969.118,34.1000 982.997,48.879 982.997,65.1000 L982.997,329.000 C982.997,346.121 969.118,360.000 951.997,360.000 L528.997,360.000 C511.876,360.000 497.997,346.121 497.997,329.000 L497.997,65.1000 C497.997,48.879 511.876,34.1000 528.997,34.1000 Z"/>
<path fill-rule="evenodd"  fill="rgb(239, 239, 239)"
 d="M568.500,54.288 L912.500,54.288 C944.533,54.288 970.500,80.256 970.500,112.288 L970.500,126.288 C970.500,158.321 944.533,184.288 912.500,184.288 L568.500,184.288 C536.467,184.288 510.500,158.321 510.500,126.288 L510.500,112.288 C510.500,80.256 536.467,54.288 568.500,54.288 Z"/>
<path fill-rule="evenodd"  fill="rgb(239, 239, 239)"
 d="M534.500,54.288 L946.500,54.288 C959.755,54.288 970.500,65.033 970.500,78.288 L970.500,160.288 C970.500,173.543 959.755,184.288 946.500,184.288 L534.500,184.288 C521.245,184.288 510.500,173.543 510.500,160.288 L510.500,78.288 C510.500,65.033 521.245,54.288 534.500,54.288 Z"/>
<path fill-rule="evenodd"  fill="rgb(239, 239, 239)"
 d="M947.000,210.883 L535.240,210.883 C521.985,210.883 511.240,221.628 511.240,234.883 L511.240,317.011 C511.240,330.265 521.985,341.011 535.240,341.011 L947.000,341.011 C960.255,341.011 971.000,330.265 971.000,317.011 L971.000,234.883 C971.000,221.628 960.255,210.883 947.000,210.883 Z"/>
<path fill-rule="evenodd"  fill="rgb(48, 48, 48)"
 d="M31.000,34.1000 L453.1000,34.1000 C471.121,34.1000 484.1000,48.879 484.1000,65.1000 L484.1000,329.000 C484.1000,346.121 471.121,360.000 453.1000,360.000 L31.000,360.000 C13.879,360.000 0.000,346.121 0.000,329.000 L0.000,65.1000 C0.000,48.879 13.879,34.1000 31.000,34.1000 Z"/>
<path fill-rule="evenodd"  fill="rgb(239, 239, 239)"
 d="M34.1000,211.011 L447.000,211.011 C460.255,211.011 470.1000,221.756 470.1000,235.011 L470.1000,317.011 C470.1000,330.265 460.255,341.011 447.000,341.011 L34.1000,341.011 C21.745,341.011 11.000,330.265 11.000,317.011 L11.000,235.011 C11.000,221.756 21.745,211.011 34.1000,211.011 Z"/>
<path fill-rule="evenodd"  fill="rgb(239, 239, 239)"
 d="M447.760,54.007 L35.1000,54.007 C22.745,54.007 11.1000,64.752 11.1000,78.007 L11.1000,160.134 C11.1000,173.389 22.745,184.134 35.1000,184.134 L447.760,184.134 C461.015,184.134 471.760,173.389 471.760,160.134 L471.760,78.007 C471.760,64.752 461.015,54.007 447.760,54.007 Z"/>
<path fill-rule="evenodd"  opacity="0.569" fill="rgb(48, 48, 48)"
 d="M193.995,69.000 L799.995,69.000 C817.116,69.000 830.995,82.879 830.995,100.000 L830.995,359.1000 L162.995,359.1000 L162.995,100.000 C162.995,82.879 176.874,69.000 193.995,69.000 Z"/>
<path fill-rule="evenodd"  fill="rgb(48, 48, 48)"
 d="M235.257,0.662 L760.743,0.662 C777.864,0.662 791.743,14.541 791.743,31.662 L791.743,363.338 C791.743,380.459 777.864,394.338 760.743,394.338 L235.257,394.338 C218.136,394.338 204.257,380.459 204.257,363.338 L204.257,31.662 C204.257,14.541 218.136,0.662 235.257,0.662 Z"/>
<path fill-rule="evenodd"  fill="rgb(239, 239, 239)"
 d="M241.581,213.866 L750.785,213.866 C764.040,213.866 774.785,224.611 774.785,237.866 L774.785,347.336 C774.785,360.591 764.040,371.336 750.785,371.336 L241.581,371.336 C228.326,371.336 217.581,360.591 217.581,347.336 L217.581,237.866 C217.581,224.611 228.326,213.866 241.581,213.866 Z"/>
<path fill-rule="evenodd"  fill="rgb(239, 239, 239)"
 d="M751.706,23.685 L242.792,23.685 C229.538,23.685 218.792,34.430 218.792,47.685 L218.792,157.310 C218.792,170.565 229.538,181.310 242.792,181.310 L751.706,181.310 C764.961,181.310 775.706,170.565 775.706,157.310 L775.706,47.685 C775.706,34.430 764.961,23.685 751.706,23.685 Z"/>
</svg>