<?xml version="1.0" encoding="UTF-8"?>
<svg viewBox="0 0 1048.4 672.38" xmlns="http://www.w3.org/2000/svg">
<path d="m25.377 306.35h566.13c13.255 0 24 10.745 24 24v314.21c0 13.255-10.745 24-24 24h-566.13c-13.255 0-24-10.745-24-24v-314.21c0-13.255 10.745-24 24-24z" fill="#2e2c2c" fill-rule="evenodd" stroke="#000" stroke-width=".88px"/>
<path d="m34.95 330.93h546.58c7.732 0 14 6.268 14 14v69.45c0 7.732-6.268 14-14 14h-546.58c-7.732 0-14-6.268-14-14v-69.45c0-7.732 6.268-14 14-14z" fill="#efefef" fill-rule="evenodd" stroke="#000" stroke-width=".88px"/>
<path d="m49.887 344.15h460.11c6.798 0 12.309 5.511 12.309 12.31 0 6.798-5.511 12.309-12.309 12.309h-460.11c-6.798 0-12.309-5.511-12.309-12.309 0-6.799 5.511-12.31 12.309-12.31z" fill="#494949" fill-rule="evenodd"/>
<path d="m51.483 377.13h299.71c6.854 0 12.41 5.556 12.41 12.41s-5.556 12.41-12.41 12.41h-299.71c-6.854 0-12.41-5.556-12.41-12.41s5.556-12.41 12.41-12.41z" fill="#494949" fill-rule="evenodd"/>
<path d="m573.77 344.97h0.71c3.866 0 7 3.134 7 7v52.192c0 3.866-3.134 7-7 7h-0.71c-3.866 0-7-3.134-7-7v-52.192c0-3.866 3.134-7 7-7z" fill="#3ab8cf" fill-rule="evenodd" stroke="#000" stroke-width="1px"/>
<path d="m34.95 440.33h546.58c7.732 0 14 6.268 14 14v69.449c0 7.732-6.268 14-14 14h-546.58c-7.732 0-14-6.268-14-14v-69.449c0-7.732 6.268-14 14-14z" fill="#efefef" fill-rule="evenodd" stroke="#000" stroke-width=".88px"/>
<path d="m49.887 454.47h460.11c6.798 0 12.309 5.511 12.309 12.31 0 6.798-5.511 12.309-12.309 12.309h-460.11c-6.798 0-12.309-5.511-12.309-12.309 0-6.799 5.511-12.31 12.309-12.31z" fill="#494949" fill-rule="evenodd"/>
<path d="m51.485 487.45h59.761c6.853 0 12.409 5.556 12.409 12.41s-5.556 12.41-12.409 12.41h-59.761c-6.854 0-12.41-5.556-12.41-12.41s5.556-12.41 12.41-12.41z" fill="#494949" fill-rule="evenodd"/>
<path d="m573.77 454.37h0.71c3.866 0 7 3.134 7 7v52.192c0 3.866-3.134 7-7 7h-0.71c-3.866 0-7-3.134-7-7v-52.192c0-3.866 3.134-7 7-7z" fill="#e43131" fill-rule="evenodd" stroke="#000" stroke-width="1px"/>
<path d="m34.95 549.73h546.58c7.732 0 14 6.268 14 14v69.45c0 7.732-6.268 14-14 14h-546.58c-7.732 0-14-6.268-14-14v-69.45c0-7.732 6.268-14 14-14z" fill="#efefef" fill-rule="evenodd" stroke="#000" stroke-width=".88px"/>
<path d="m51.726 567.55h460.11c6.798 0 12.31 5.511 12.31 12.309 0 6.799-5.512 12.31-12.31 12.31h-460.11c-6.798 0-12.309-5.511-12.309-12.31 0-6.798 5.511-12.309 12.309-12.309z" fill="#494949" fill-rule="evenodd"/>
<path d="m53.321 600.53h429.34c6.854 0 12.41 5.556 12.41 12.41s-5.556 12.41-12.41 12.41h-429.34c-6.854 0-12.41-5.556-12.41-12.41s5.556-12.41 12.41-12.41z" fill="#494949" fill-rule="evenodd"/>
<path d="m573.77 563.77h0.71c3.866 0 7 3.134 7 7v52.192c0 3.866-3.134 7-7 7h-0.71c-3.866 0-7-3.134-7-7v-52.192c0-3.866 3.134-7 7-7z" fill="#d8c124" fill-rule="evenodd" stroke="#000" stroke-width="1px"/>
<path d="m160.46 306.43h462.98c1.104 0 2 0.895 2 2v234.02h-438.98c-14.359 0-26-11.64-26-26v-210.02z" fill="#2e2c2c" fill-rule="evenodd" opacity=".859" stroke="#000" stroke-width=".88px"/>
<path d="m25.152 308.18h566.68c13.254 0 24 10.745 24 24v314.54c0 13.255-10.746 24-24 24h-566.68c-13.255 0-24-10.745-24-24v-314.54c0-13.255 10.745-24 24-24z" fill="#2e2c2c" fill-rule="evenodd" opacity=".859" stroke="#000" stroke-width=".88px"/>
<path d="m199.43 131.43h620.02c13.255 0 24 10.745 24 24v346c0 13.255-10.745 24-24 24h-620.02c-13.255 0-24-10.745-24-24v-346c0-13.255 10.745-24 24-24z" fill="#2e2c2c" fill-rule="evenodd" stroke="#000" stroke-width=".88px"/>
<path d="m210.72 158.16h597c7.732 0 14 6.268 14 14v78c0 7.732-6.268 14-14 14h-597c-7.732 0-14-6.268-14-14v-78c0-7.732 6.268-14 14-14z" fill="#efefef" fill-rule="evenodd" stroke="#000" stroke-width=".88px"/>
<path d="m228.2 172.55h500.48c7.395 0 13.39 5.995 13.39 13.389 0 7.395-5.995 13.39-13.39 13.39h-500.48c-7.395 0-13.39-5.995-13.39-13.39 0-7.394 5.995-13.389 13.39-13.389z" fill="#494949" fill-rule="evenodd"/>
<path d="m229.83 208.43h326.23c7.395 0 13.389 5.995 13.389 13.389v0.219c0 7.395-5.994 13.39-13.389 13.39h-326.23c-7.395 0-13.39-5.995-13.39-13.39v-0.219c0-7.394 5.995-13.389 13.39-13.389z" fill="#494949" fill-rule="evenodd"/>
<path d="m797.44 173.44h2c3.866 0 7 3.134 7 7v58c0 3.866-3.134 7-7 7h-2c-3.866 0-7-3.134-7-7v-58c0-3.866 3.134-7 7-7z" fill="#3ab8cf" fill-rule="evenodd" stroke="#000" stroke-width="1px"/>
<path d="m210.72 277.16h597c7.732 0 14 6.268 14 14v78c0 7.732-6.268 14-14 14h-597c-7.732 0-14-6.268-14-14v-78c0-7.732 6.268-14 14-14z" fill="#efefef" fill-rule="evenodd" stroke="#000" stroke-width=".88px"/>
<path d="m228.2 292.55h500.48c7.395 0 13.39 5.995 13.39 13.389 0 7.395-5.995 13.39-13.39 13.39h-500.48c-7.395 0-13.39-5.995-13.39-13.39 0-7.394 5.995-13.389 13.39-13.389z" fill="#494949" fill-rule="evenodd"/>
<path d="m229.83 328.43h65.223c7.395 0 13.389 5.995 13.389 13.389v0.219c0 7.395-5.994 13.39-13.389 13.39h-65.223c-7.395 0-13.39-5.995-13.39-13.39v-0.219c0-7.394 5.995-13.389 13.39-13.389z" fill="#494949" fill-rule="evenodd"/>
<path d="m797.44 292.44h2c3.866 0 7 3.134 7 7v58c0 3.866-3.134 7-7 7h-2c-3.866 0-7-3.134-7-7v-58c0-3.866 3.134-7 7-7z" fill="#e43131" fill-rule="evenodd" stroke="#000" stroke-width="1px"/>
<path d="m210.72 396.16h597c7.732 0 14 6.268 14 14v78c0 7.732-6.268 14-14 14h-597c-7.732 0-14-6.268-14-14v-78c0-7.732 6.268-14 14-14z" fill="#efefef" fill-rule="evenodd" stroke="#000" stroke-width=".88px"/>
<path d="m230.2 415.55h500.48c7.395 0 13.39 5.995 13.39 13.389 0 7.395-5.995 13.39-13.39 13.39h-500.48c-7.395 0-13.39-5.995-13.39-13.39 0-7.394 5.995-13.389 13.39-13.389z" fill="#494949" fill-rule="evenodd"/>
<path d="m231.83 451.43h467.23c7.395 0 13.389 5.995 13.389 13.389v0.219c0 7.395-5.994 13.39-13.389 13.39h-467.23c-7.395 0-13.39-5.995-13.39-13.39v-0.219c0-7.394 5.995-13.389 13.39-13.389z" fill="#494949" fill-rule="evenodd"/>
<path d="m797.44 411.44h2c3.866 0 7 3.134 7 7v58c0 3.866-3.134 7-7 7h-2c-3.866 0-7-3.134-7-7v-58c0-3.866 3.134-7 7-7z" fill="#3ab8cf" fill-rule="evenodd" stroke="#000" stroke-width="1px"/>
<path d="m201.43 131.43h619.28c13.255 0 24 10.745 24 24v345.56c0 13.254-10.745 24-24 24h-619.28c-13.255 0-24-10.746-24-24v-345.56c0-13.255 10.745-24 24-24z" fill="#2e2c2c" fill-rule="evenodd" opacity=".6" stroke="#000" stroke-width=".88px"/>
<path d="m348.59 131.43h496.12v292.61h-472.12c-13.255 0-24-10.745-24-24v-268.61z" fill="#2e2c2c" fill-rule="evenodd" opacity=".6" stroke="#000" stroke-width=".88px"/>
<path d="m402.43 1.714h620.02c13.255 0 24 10.745 24 24v346c0 13.255-10.745 24-24 24h-620.02c-13.255 0-24-10.745-24-24v-346c0-13.255 10.745-24 24-24z" fill="#2e2c2c" fill-rule="evenodd" stroke="#000" stroke-width=".88px"/>
<path d="m413.72 28.446h597c7.732 0 14 6.268 14 14v78c0 7.732-6.268 14-14 14h-597c-7.732 0-14-6.268-14-14v-78c0-7.732 6.268-14 14-14z" fill="#efefef" fill-rule="evenodd" stroke="#000" stroke-width=".88px"/>
<path d="m431.2 42.833h500.48c7.395 0 13.39 5.995 13.39 13.39 0 7.394-5.995 13.389-13.39 13.389h-500.48c-7.395 0-13.39-5.995-13.39-13.389 0-7.395 5.995-13.39 13.39-13.39z" fill="#494949" fill-rule="evenodd"/>
<path d="m432.83 78.708h326.23c7.395 0 13.389 5.995 13.389 13.39v0.218c0 7.395-5.994 13.39-13.389 13.39h-326.23c-7.395 0-13.39-5.995-13.39-13.39v-0.218c0-7.395 5.995-13.39 13.39-13.39z" fill="#494949" fill-rule="evenodd"/>
<path d="m1000.4 43.721h2c3.866 0 7 3.134 7 7v58c0 3.866-3.134 7-7 7h-2c-3.866 0-7-3.134-7-7v-58c0-3.866 3.134-7 7-7z" fill="#3ab8cf" fill-rule="evenodd" stroke="#000" stroke-width="1px"/>
<path d="m413.72 147.45h597c7.732 0 14 6.268 14 14v78c0 7.732-6.268 14-14 14h-597c-7.732 0-14-6.268-14-14v-78c0-7.732 6.268-14 14-14z" fill="#efefef" fill-rule="evenodd" stroke="#000" stroke-width=".88px"/>
<path d="m431.2 162.83h500.48c7.395 0 13.39 5.995 13.39 13.39 0 7.394-5.995 13.389-13.39 13.389h-500.48c-7.395 0-13.39-5.995-13.39-13.389 0-7.395 5.995-13.39 13.39-13.39z" fill="#494949" fill-rule="evenodd"/>
<path d="m432.83 198.71h65.223c7.395 0 13.389 5.995 13.389 13.39v0.218c0 7.395-5.994 13.39-13.389 13.39h-65.223c-7.395 0-13.39-5.995-13.39-13.39v-0.218c0-7.395 5.995-13.39 13.39-13.39z" fill="#494949" fill-rule="evenodd"/>
<path d="m1000.4 162.72h2c3.866 0 7 3.134 7 7v58c0 3.866-3.134 7-7 7h-2c-3.866 0-7-3.134-7-7v-58c0-3.866 3.134-7 7-7z" fill="#e43131" fill-rule="evenodd" stroke="#000" stroke-width="1px"/>
<path d="m413.72 266.45h597c7.732 0 14 6.268 14 14v78c0 7.732-6.268 14-14 14h-597c-7.732 0-14-6.268-14-14v-78c0-7.732 6.268-14 14-14z" fill="#efefef" fill-rule="evenodd" stroke="#000" stroke-width=".88px"/>
<path d="m433.2 285.83h500.48c7.395 0 13.39 5.995 13.39 13.39 0 7.394-5.995 13.389-13.39 13.389h-500.48c-7.395 0-13.39-5.995-13.39-13.389 0-7.395 5.995-13.39 13.39-13.39z" fill="#494949" fill-rule="evenodd"/>
<path d="m434.83 321.71h467.23c7.395 0 13.389 5.995 13.389 13.39v0.218c0 7.395-5.994 13.39-13.389 13.39h-467.23c-7.395 0-13.39-5.995-13.39-13.39v-0.218c0-7.395 5.995-13.39 13.39-13.39z" fill="#494949" fill-rule="evenodd"/>
<path d="m1000.4 281.72h2c3.866 0 7 3.134 7 7v58c0 3.866-3.134 7-7 7h-2c-3.866 0-7-3.134-7-7v-58c0-3.866 3.134-7 7-7z" fill="#d8c124" fill-rule="evenodd" stroke="#000" stroke-width="1px"/>
</svg>