<svg 
 xmlns="http://www.w3.org/2000/svg"
 xmlns:xlink="http://www.w3.org/1999/xlink"
 width="629.585px" height="191.145px">
<path fill-rule="evenodd"  fill="rgb(58, 184, 207)"
 d="M42.440,-0.000 L146.440,-0.000 C169.084,-0.000 187.440,18.356 187.440,40.1000 L187.440,145.000 C187.440,167.644 169.084,186.000 146.440,186.000 L42.440,186.000 C19.796,186.000 1.440,167.644 1.440,145.000 L1.440,40.1000 C1.440,18.356 19.796,-0.000 42.440,-0.000 Z"/>
<path fill-rule="evenodd"  fill="rgb(216, 193, 36)"
 d="M266.440,-0.000 L370.440,-0.000 C393.084,-0.000 411.440,18.356 411.440,40.1000 L411.440,145.000 C411.440,167.644 393.084,186.000 370.440,186.000 L266.440,186.000 C243.796,186.000 225.440,167.644 225.440,145.000 L225.440,40.1000 C225.440,18.356 243.796,-0.000 266.440,-0.000 Z"/>
<path fill-rule="evenodd"  fill="rgb(228, 49, 49)"
 d="M479.440,-0.000 L583.440,-0.000 C606.084,-0.000 624.440,18.356 624.440,40.1000 L624.440,145.000 C624.440,167.644 606.084,186.000 583.440,186.000 L479.440,186.000 C456.796,186.000 438.440,167.644 438.440,145.000 L438.440,40.1000 C438.440,18.356 456.796,-0.000 479.440,-0.000 Z"/>
<path fill-rule="evenodd"  stroke="rgb(0, 0, 0)" stroke-width="0.88px" stroke-linecap="butt" stroke-linejoin="miter" fill="rgb(73, 73, 73)"
 d="M90.440,36.1000 L98.440,36.1000 C147.593,36.1000 187.440,76.847 187.440,125.1000 L187.440,143.1000 C187.440,167.196 168.636,186.000 145.440,186.000 L43.440,186.000 C20.244,186.000 1.440,167.196 1.440,143.1000 L1.440,125.1000 C1.440,76.847 41.287,36.1000 90.440,36.1000 Z"/>
<path fill-rule="evenodd"  fill="rgb(239, 239, 239)"
 d="M94.440,52.1000 L95.440,52.1000 C140.727,52.1000 177.440,89.713 177.440,135.000 L177.440,140.1000 C177.440,159.778 162.218,175.000 143.440,175.000 L46.440,175.000 C27.662,175.000 12.440,159.778 12.440,140.1000 L12.440,135.000 C12.440,89.713 49.153,52.1000 94.440,52.1000 Z"/>
<path fill-rule="evenodd"  fill="rgb(73, 73, 73)"
 d="M26.327,95.819 L98.704,102.247 L92.931,124.865 L26.327,95.819 Z"/>
<path fill-rule="evenodd"  stroke="rgb(239, 239, 239)" stroke-width="7.41px" stroke-linecap="butt" stroke-linejoin="miter" fill="rgb(73, 73, 73)"
 d="M97.940,102.829 C104.386,102.829 109.612,108.054 109.612,114.500 C109.612,120.946 104.386,126.172 97.940,126.172 C91.494,126.172 86.268,120.946 86.268,114.500 C86.268,108.054 91.494,102.829 97.940,102.829 Z"/>
<path fill-rule="evenodd"  stroke="rgb(0, 0, 0)" stroke-width="0.88px" stroke-linecap="butt" stroke-linejoin="miter" fill="rgb(73, 73, 73)"
 d="M314.877,36.219 L322.878,36.219 C372.031,36.219 411.878,76.065 411.878,125.219 L411.878,143.219 C411.878,166.415 393.073,185.219 369.878,185.219 L267.877,185.219 C244.682,185.219 225.877,166.415 225.877,143.219 L225.877,125.219 C225.877,76.065 265.724,36.219 314.877,36.219 Z"/>
<path fill-rule="evenodd"  fill="rgb(239, 239, 239)"
 d="M318.878,52.219 L319.877,52.219 C365.165,52.219 401.877,88.931 401.877,134.219 L401.877,140.219 C401.877,158.996 386.655,174.219 367.877,174.219 L270.878,174.219 C252.100,174.219 236.878,158.996 236.878,140.219 L236.878,134.219 C236.878,88.931 273.590,52.219 318.878,52.219 Z"/>
<path fill-rule="evenodd"  fill="rgb(73, 73, 73)"
 d="M341.430,57.990 L328.533,125.005 L311.451,117.305 L341.430,57.990 Z"/>
<path fill-rule="evenodd"  fill="rgb(73, 73, 73)"
 d="M299.621,60.135 L335.002,61.172 L331.213,65.615 L299.621,60.135 Z"/>
<path fill-rule="evenodd"  fill="rgb(73, 73, 73)"
 d="M303.436,66.011 L328.439,67.142 L325.762,71.989 L303.436,66.011 Z"/>
<path fill-rule="evenodd"  stroke="rgb(239, 239, 239)" stroke-width="7.41px" stroke-linecap="butt" stroke-linejoin="miter" fill="rgb(73, 73, 73)"
 d="M320.442,101.362 C326.893,101.362 332.122,106.595 332.122,113.050 C332.122,119.506 326.893,124.739 320.442,124.739 C313.992,124.739 308.763,119.506 308.763,113.050 C308.763,106.595 313.992,101.362 320.442,101.362 Z"/>
<path fill-rule="evenodd"  stroke="rgb(0, 0, 0)" stroke-width="0.88px" stroke-linecap="butt" stroke-linejoin="miter" fill="rgb(73, 73, 73)"
 d="M527.440,36.1000 L535.440,36.1000 C584.593,36.1000 624.440,76.847 624.440,125.1000 L624.440,143.1000 C624.440,167.196 605.636,186.000 582.440,186.000 L480.440,186.000 C457.244,186.000 438.440,167.196 438.440,143.1000 L438.440,125.1000 C438.440,76.847 478.287,36.1000 527.440,36.1000 Z"/>
<path fill-rule="evenodd"  fill="rgb(239, 239, 239)"
 d="M531.440,52.1000 L532.440,52.1000 C577.727,52.1000 614.440,89.713 614.440,135.000 L614.440,140.1000 C614.440,159.778 599.218,175.000 580.440,175.000 L483.440,175.000 C464.662,175.000 449.440,159.778 449.440,140.1000 L449.440,135.000 C449.440,89.713 486.153,52.1000 531.440,52.1000 Z"/>
<path fill-rule="evenodd"  fill="rgb(73, 73, 73)"
 d="M597.989,141.712 L527.644,123.255 L537.132,101.892 L597.989,141.712 Z"/>
<path fill-rule="evenodd"  fill="rgb(73, 73, 73)"
 d="M594.126,86.767 L597.680,140.648 L591.649,134.198 L594.126,86.767 Z"/>
<path fill-rule="evenodd"  fill="rgb(73, 73, 73)"
 d="M588.534,132.501 L583.321,127.402 L589.396,91.529 L588.534,132.501 Z"/>
<path fill-rule="evenodd"  fill="rgb(73, 73, 73)"
 d="M580.866,126.001 L577.444,122.516 L581.432,97.998 L580.866,126.001 Z"/>
<path fill-rule="evenodd"  stroke="rgb(239, 239, 239)" stroke-width="7.41px" stroke-linecap="butt" stroke-linejoin="miter" fill="rgb(73, 73, 73)"
 d="M534.442,102.362 C540.893,102.362 546.122,107.595 546.122,114.050 C546.122,120.506 540.893,125.739 534.442,125.739 C527.992,125.739 522.763,120.506 522.763,114.050 C522.763,107.595 527.992,102.362 534.442,102.362 Z"/>
<path fill-rule="evenodd"  fill="rgb(0, 0, 0)"
 d="M596.440,3.000 L574.929,17.661 L577.911,37.239 L508.440,126.986 L592.648,38.180 L587.447,21.337 L607.440,7.1000 L596.440,3.000 Z"/>
<path fill-rule="evenodd"  fill="rgb(21, 21, 21)"
 d="M591.440,0.1000 L569.907,17.936 L573.455,37.400 L506.690,129.052 L588.200,37.911 L582.515,21.242 L603.440,4.1000 L591.440,0.1000 Z"/>
<path fill-rule="evenodd"  fill="rgb(0, 0, 0)"
 d="M486.440,187.000 L487.703,168.007 L470.671,157.937 L445.153,47.455 L460.627,168.744 L476.945,175.367 L477.440,187.000 L486.440,187.000 Z"/>
<path fill-rule="evenodd"  fill="rgb(21, 21, 21)"
 d="M491.440,187.000 L491.701,163.595 L474.345,154.095 L445.185,44.517 L464.664,165.228 L481.193,171.307 L478.440,187.000 L491.440,187.000 Z"/>
<path fill-rule="evenodd"  opacity="0.188" fill="rgb(239, 239, 239)"
 d="M49.440,7.000 L140.440,7.000 C163.084,7.000 181.440,25.356 181.440,48.000 L181.440,138.1000 C181.440,161.644 163.084,179.1000 140.440,179.1000 L49.440,179.1000 C26.796,179.1000 8.440,161.644 8.440,138.1000 L8.440,48.000 C8.440,25.356 26.796,7.000 49.440,7.000 Z"/>
<path fill-rule="evenodd"  opacity="0.188" fill="rgb(239, 239, 239)"
 d="M274.440,9.000 L365.440,9.000 C388.084,9.000 406.440,27.356 406.440,50.000 L406.440,140.1000 C406.440,163.644 388.084,181.1000 365.440,181.1000 L274.440,181.1000 C251.796,181.1000 233.440,163.644 233.440,140.1000 L233.440,50.000 C233.440,27.356 251.796,9.000 274.440,9.000 Z"/>
<path fill-rule="evenodd"  opacity="0.188" fill="rgb(239, 239, 239)"
 d="M486.440,9.000 L577.440,9.000 C600.084,9.000 618.440,27.356 618.440,50.000 L618.440,140.1000 C618.440,163.644 600.084,181.1000 577.440,181.1000 L486.440,181.1000 C463.796,181.1000 445.440,163.644 445.440,140.1000 L445.440,50.000 C445.440,27.356 463.796,9.000 486.440,9.000 Z"/>
</svg>